<?xml version="1.0" encoding="UTF-8"?>
<svg version="1.1" xmlns="http://www.w3.org/2000/svg" width="1024" height="1024">
<path d="M0 0 C53.7427275 -0.09160501 107.48544708 -0.16206387 161.22823733 -0.20426132 C167.57663751 -0.209264 173.92503755 -0.2144413 180.2734375 -0.21972656 C181.5372612 -0.2207758 182.80108489 -0.22182505 184.10320628 -0.22290608 C204.55251088 -0.24029954 225.00177038 -0.27183141 245.45104825 -0.30861118 C266.44223305 -0.34605005 287.43339428 -0.36824209 308.42461109 -0.37635398 C321.37173079 -0.38183562 334.31872301 -0.39913356 347.26580346 -0.43166587 C356.15053954 -0.4528501 365.03520995 -0.45919119 373.91996944 -0.45400551 C379.04191292 -0.45144983 384.16363403 -0.45529895 389.28553772 -0.4768219 C393.98409937 -0.49642072 398.68229106 -0.49718433 403.38087046 -0.48359558 C405.07159559 -0.48191843 406.7623447 -0.48687906 408.45302331 -0.49953273 C423.11038088 -0.60276485 435.67026601 2.30340331 449.546875 7.16796875 C451.88599658 8.01278681 451.88599658 8.01278681 453.90625 8.4140625 C461.72714515 10.60274584 469.70666637 15.33356069 476.00390625 20.3984375 C478.47803505 22.38355063 481.04695868 24.21461535 483.625 26.0625 C491.53646958 31.81729637 491.53646958 31.81729637 495 35 C495 35.66 495 36.32 495 37 C495.66 37 496.32 37 497 37 C499.58306151 39.43280031 501.75857774 42.25479141 504 45 C504.70769531 45.85980469 505.41539062 46.71960938 506.14453125 47.60546875 C515.10781206 58.9861668 521.37046911 71.29450298 526 85 C526.29084473 85.85972412 526.58168945 86.71944824 526.88134766 87.60522461 C528.21659816 91.77879227 529.16207373 95.69233059 529.5625 100.0625 C529.706875 101.361875 529.85125 102.66125 530 104 C530.66 104.33 531.32 104.66 532 105 C532.63861049 202.28199014 533.11887847 299.5638815 533.17937243 396.84811753 C533.18471916 404.78102715 533.19526618 412.71391919 533.20800781 420.64682007 C533.22342541 430.35931147 533.2313064 440.0717748 533.22964984 449.78427887 C533.22891518 454.74775153 533.23112168 459.71117081 533.24188805 464.67463303 C533.33985595 512.81904634 528.93763433 553.97434246 494 590 C477.66915277 606.38735535 456.33517555 617.37644359 434 623 C432.81921875 623.30679688 431.6384375 623.61359375 430.421875 623.9296875 C420.88897834 625.98926394 411.36807434 626.31948735 401.6403656 626.57003784 C400.5337993 626.60055856 400.5337993 626.60055856 399.40487813 626.63169585 C382.79467959 627.08598134 366.18851245 627.14418582 349.57315838 627.13072467 C345.31636417 627.12840793 341.05957357 627.13198028 336.80278015 627.13470459 C328.52055507 627.13909418 320.23833917 627.13821719 311.95611376 627.13529195 C305.21938817 627.13301298 298.48266512 627.13273605 291.74593925 627.13381577 C290.77910449 627.133969 289.81226973 627.13412223 288.81613694 627.13428011 C286.85087399 627.13459989 284.88561105 627.13492411 282.9203481 627.1352527 C264.6040675 627.1380869 246.28779196 627.13485186 227.97151219 627.12945233 C212.29977189 627.12497545 196.628039 627.1257715 180.95629883 627.13037109 C162.67236139 627.13573498 144.38842833 627.13782357 126.10449022 627.13475883 C124.1519349 627.13444033 122.19937958 627.13412596 120.24682426 627.13381577 C119.28656056 627.13366149 118.32629686 627.13350721 117.33693426 627.13334826 C110.61082743 627.13248935 103.88472341 627.13393221 97.15861702 627.13629532 C88.95951145 627.13911326 80.76041544 627.13831278 72.56131095 627.13301457 C68.38869145 627.13040599 64.21608783 627.12932381 60.04346848 627.13266373 C14.9236792 627.16571736 14.9236792 627.16571736 2 624.375 C1.18442627 624.20387695 0.36885254 624.03275391 -0.47143555 623.85644531 C-35.60695112 616.00878186 -64.97299366 594.75450993 -84.25 564.5625 C-104.31716097 530.66582318 -104.16160291 494.89166883 -104.13072467 456.55431938 C-104.12843535 452.33872701 -104.13196762 448.12313856 -104.13470459 443.907547 C-104.13912459 435.67452829 -104.13820249 427.44151876 -104.13529195 419.20849971 C-104.13302209 412.50677783 -104.13273222 405.80505849 -104.13381577 399.10333633 C-104.133969 398.14495186 -104.13412223 397.18656738 -104.13428011 396.19914094 C-104.13459988 394.25136764 -104.13492409 392.30359433 -104.1352527 390.35582103 C-104.13809669 372.13810702 -104.13483794 353.92039807 -104.12945233 335.70268489 C-104.12498959 320.12568063 -104.12575796 304.54868382 -104.13037109 288.97167969 C-104.13574344 270.82291705 -104.1378176 252.67415883 -104.13475883 234.52539551 C-104.13444033 232.58344976 -104.13412596 230.64150401 -104.13381577 228.69955826 C-104.13358435 227.26688394 -104.13358435 227.26688394 -104.13334826 225.8052667 C-104.13249075 219.12719448 -104.13392946 212.4491251 -104.13629532 205.77105331 C-104.13912338 197.60987023 -104.13829266 189.44869674 -104.13301457 181.28751473 C-104.13041697 177.13640316 -104.12930404 172.98530748 -104.13266373 168.83419609 C-104.14358276 154.01813511 -104.1110618 139.21199238 -103.57003784 124.40335083 C-103.53339685 123.3724004 -103.49675585 122.34144996 -103.45900452 121.27925861 C-102.23947289 92.2692084 -91.70650051 65.15892433 -73 43 C-72.01966797 41.79923828 -72.01966797 41.79923828 -71.01953125 40.57421875 C-52.66572437 18.98353036 -27.06889537 7.51888535 0 1 C0 0.67 0 0.34 0 0 Z " fill="#F8A029" transform="translate(296,184)"/>
<path d="M0 0 C53.13 0 106.26 0 161 0 C161 15.18 161 30.36 161 46 C128 46 95 46 61 46 C61 61.18 61 76.36 61 92 C92.02 92 123.04 92 155 92 C155 107.51 155 123.02 155 139 C123.65 139 92.3 139 60 139 C60 156.82 60 174.64 60 193 C93.99 193 127.98 193 163 193 C163 208.84 163 224.68 163 241 C109.21 241 55.42 241 0 241 C0 161.47 0 81.94 0 0 Z " fill="#181818" transform="translate(529,370)"/>
<path d="M0 0 C60.39 0 120.78 0 183 0 C183 15.51 183 31.02 183 47 C162.87 47 142.74 47 122 47 C122 111.02 122 175.04 122 241 C101.87 241 81.74 241 61 241 C61 176.65 61 112.3 61 46 C40.87 46 20.74 46 0 46 C0 30.82 0 15.64 0 0 Z " fill="#191818" transform="translate(319,370)"/>
<path d="M0 0 C53.13 0 106.26 0 161 0 C161 15.18 161 30.36 161 46 C127.67 46 94.34 46 60 46 C60 61.51 60 77.02 60 93 C59.67 93 59.34 93 59 93 C58.9747311 86.18238106 58.95716756 79.36477411 58.94506836 72.54711914 C58.94002667 70.22582549 58.93319349 67.90453503 58.92456055 65.58325195 C58.91248775 62.25471205 58.90677021 58.92621398 58.90234375 55.59765625 C58.89718246 54.55287613 58.89202118 53.50809601 58.88670349 52.43165588 C58.88662796 51.47073532 58.88655243 50.50981476 58.88647461 49.51977539 C58.884254 48.66928116 58.88203339 47.81878693 58.87974548 46.94252014 C59 45 59 45 60 44 C63.1050725 43.90466347 66.18786458 43.87448874 69.29321289 43.88647461 C70.26871597 43.88632858 71.24421906 43.88618256 72.24928284 43.8860321 C75.49042953 43.88673167 78.73151954 43.89452609 81.97265625 43.90234375 C84.21325143 43.90420778 86.45384702 43.90563175 88.69444275 43.90663147 C94.6045951 43.91045787 100.51472305 43.9202892 106.42486572 43.93133545 C112.45055817 43.94154694 118.47625453 43.94612853 124.50195312 43.95117188 C136.33464789 43.96191136 148.1673181 43.97950914 160 44 C160 29.81 160 15.62 160 1 C107.53 1 55.06 1 1 1 C1 79.54 1 158.08 1 239 C54.13 239 107.26 239 162 239 C162 224.48 162 209.96 162 195 C158.88506104 195.00523682 155.77012207 195.01047363 152.56079102 195.01586914 C142.29493581 195.03240295 132.02908003 195.04347038 121.76321507 195.05181217 C115.53606528 195.0570416 109.30892908 195.06414033 103.08178711 195.07543945 C97.07773135 195.08626621 91.07368871 195.09227638 85.06962395 195.09487724 C82.7733839 195.09673188 80.47714461 195.10035321 78.18091011 195.10573006 C74.97679186 195.11293768 71.7727285 195.11399106 68.56860352 195.11352539 C67.60907272 195.11712067 66.64954193 195.12071594 65.66093445 195.12442017 C64.79290192 195.1230455 63.92486938 195.12167084 63.03053284 195.12025452 C61.8925794 195.12163721 61.8925794 195.12163721 60.731637 195.12304783 C59 195 59 195 58 194 C57.90112208 192.25617465 57.87200968 190.50834457 57.87060547 188.76171875 C57.86745331 187.64385986 57.86430115 186.52600098 57.86105347 185.37426758 C57.8630777 184.15763428 57.86510193 182.94100098 57.8671875 181.6875 C57.86623077 180.44830811 57.86527405 179.20911621 57.86428833 177.93237305 C57.86360626 175.30611719 57.86496462 172.67995367 57.86962891 170.05371094 C57.87532619 166.68071286 57.87204698 163.30779435 57.86605644 159.93479919 C57.8615823 156.72736323 57.86471118 153.519937 57.8671875 150.3125 C57.86516327 149.0958667 57.86313904 147.8792334 57.86105347 146.62573242 C57.86578171 144.94894409 57.86578171 144.94894409 57.87060547 143.23828125 C57.87140106 142.24868408 57.87219666 141.25908691 57.87301636 140.23950195 C58 138 58 138 59 137 C61.92194665 136.90474633 64.82020329 136.87447264 67.74243164 136.88647461 C69.11790413 136.88625557 69.11790413 136.88625557 70.52116394 136.8860321 C73.56751836 136.8867316 76.61381245 136.89452572 79.66015625 136.90234375 C81.76622993 136.9042078 83.87230403 136.90563176 85.9783783 136.90663147 C91.53342883 136.91045769 97.08845341 136.92028886 102.64349365 136.93133545 C108.3072474 136.94154733 113.97100533 136.94612861 119.63476562 136.95117188 C130.75652185 136.96191104 141.87825877 136.9789887 153 137 C153 137.33 153 137.66 153 138 C122.31 138 91.62 138 60 138 C60 156.15 60 174.3 60 193 C93.99 193 127.98 193 163 193 C163 208.84 163 224.68 163 241 C109.21 241 55.42 241 0 241 C0 161.47 0 81.94 0 0 Z " fill="#02020F" transform="translate(529,370)"/>
<path d="M0 0 C31.02 0 62.04 0 94 0 C94 15.51 94 31.02 94 47 C62.65 47 31.3 47 -1 47 C-1 46.67 -1 46.34 -1 46 C29.69 46 60.38 46 92 46 C92 31.48 92 16.96 92 2 C61.64 2 31.28 2 0 2 C0 1.34 0 0.68 0 0 Z " fill="#4D2915" transform="translate(590,462)"/>
<path d="M0 0 C0.87537415 0.00359528 1.75074829 0.00719055 2.65264893 0.01089478 C4.02812141 0.01067574 4.02812141 0.01067574 5.43138123 0.01045227 C8.47773564 0.01115177 11.52402973 0.01894589 14.57037354 0.02676392 C16.67644721 0.02862796 18.78252132 0.03005193 20.88859558 0.03105164 C26.44364612 0.03487786 31.99867069 0.04470903 37.55371094 0.05575562 C43.21746469 0.0659675 48.88122262 0.07054878 54.54498291 0.07559204 C65.66673914 0.0863312 76.78847606 0.10340887 87.91021729 0.12442017 C87.91021729 0.45442017 87.91021729 0.78442017 87.91021729 1.12442017 C57.22021729 1.12442017 26.53021729 1.12442017 -5.08978271 1.12442017 C-5.08978271 19.27442017 -5.08978271 37.42442017 -5.08978271 56.12442017 C19.00021729 56.12442017 43.09021729 56.12442017 67.91021729 56.12442017 C63.65382997 58.25261383 61.71216763 58.37273863 57.04620361 58.36734009 C56.02361198 58.37018761 56.02361198 58.37018761 54.98036194 58.37309265 C52.73420599 58.37678803 50.48837557 58.36611676 48.24224854 58.35488892 C46.68094419 58.35369663 45.11963913 58.35324406 43.55833435 58.35350037 C40.29089856 58.35193781 37.0235727 58.34366342 33.75616455 58.33023071 C29.5593131 58.31319895 25.36258192 58.30941769 21.16569996 58.3101759 C17.94448185 58.30990463 14.72329024 58.30443112 11.50208092 58.29717445 C9.95385628 58.29398409 8.40562864 58.29201952 6.85740089 58.29128075 C4.7002304 58.28912344 2.5431901 58.28039384 0.38604736 58.26968384 C-0.84320969 58.26587204 -2.07246674 58.26206024 -3.338974 58.25813293 C-6.08978271 58.12442017 -6.08978271 58.12442017 -7.08978271 57.12442017 C-7.18866064 55.38059481 -7.21777303 53.63276473 -7.21917725 51.88613892 C-7.22232941 50.76828003 -7.22548157 49.65042114 -7.22872925 48.49868774 C-7.22670502 47.28205444 -7.22468079 46.06542114 -7.22259521 44.81192017 C-7.22355194 43.57272827 -7.22450867 42.33353638 -7.22549438 41.05679321 C-7.22617645 38.43053736 -7.22481809 35.80437383 -7.22015381 33.1781311 C-7.21445652 29.80513303 -7.21773574 26.43221451 -7.22372627 23.05921936 C-7.22820042 19.8517834 -7.22507154 16.64435716 -7.22259521 13.43692017 C-7.22461945 12.22028687 -7.22664368 11.00365356 -7.22872925 9.75015259 C-7.22557709 8.6322937 -7.22242493 7.51443481 -7.21917725 6.36270142 C-7.21838165 5.37310425 -7.21758606 4.38350708 -7.21676636 3.36392212 C-6.95621431 -1.23121153 -3.88903206 0.00674754 0 0 Z " fill="#0E080F" transform="translate(594.0897827148438,506.8755798339844)"/>
<path d="" fill="#EA9A2C" transform="translate(0,0)"/>
<path d="" fill="#EB9B2E" transform="translate(0,0)"/>
<path d="" fill="#EB9A2D" transform="translate(0,0)"/>
<path d="" fill="#EB9A2D" transform="translate(0,0)"/>
<path d="" fill="#EE9D2F" transform="translate(0,0)"/>
<path d="" fill="#EA9B2C" transform="translate(0,0)"/>
<path d="" fill="#EA992D" transform="translate(0,0)"/>
<path d="M0 0 C2 1 2 1 2 1 Z " fill="#EC9A2D" transform="translate(240,208)"/>
<path d="" fill="#030000" transform="translate(0,0)"/>
<path d="" fill="#301B03" transform="translate(0,0)"/>
<path d="" fill="#EB992B" transform="translate(0,0)"/>
<path d="" fill="#E9982B" transform="translate(0,0)"/>
<path d="" fill="#EC972B" transform="translate(0,0)"/>
<path d="" fill="#EA982D" transform="translate(0,0)"/>
<path d="" fill="#EB9B2C" transform="translate(0,0)"/>
<path d="" fill="#EB982B" transform="translate(0,0)"/>
<path d="" fill="#ED9A2C" transform="translate(0,0)"/>
<path d="" fill="#EA992C" transform="translate(0,0)"/>
<path d="" fill="#E9972D" transform="translate(0,0)"/>
<path d="" fill="#EB982C" transform="translate(0,0)"/>
<path d="" fill="#E99B2D" transform="translate(0,0)"/>
<path d="" fill="#EB9A2C" transform="translate(0,0)"/>
<path d="" fill="#EB9A2D" transform="translate(0,0)"/>
<path d="" fill="#ED9C2D" transform="translate(0,0)"/>
<path d="" fill="#ED9C2D" transform="translate(0,0)"/>
<path d="" fill="#F19E2E" transform="translate(0,0)"/>
<path d="" fill="#F19C2E" transform="translate(0,0)"/>
<path d="" fill="#F19E2E" transform="translate(0,0)"/>
<path d="" fill="#E9992F" transform="translate(0,0)"/>
<path d="" fill="#EA992D" transform="translate(0,0)"/>
<path d="" fill="#EA9A2D" transform="translate(0,0)"/>
<path d="" fill="#E99A2F" transform="translate(0,0)"/>
<path d="" fill="#E6952E" transform="translate(0,0)"/>
<path d="" fill="#E8982C" transform="translate(0,0)"/>
<path d="" fill="#E8982E" transform="translate(0,0)"/>
<path d="" fill="#E8972C" transform="translate(0,0)"/>
<path d="" fill="#E7972E" transform="translate(0,0)"/>
<path d="" fill="#E7982C" transform="translate(0,0)"/>
<path d="" fill="#EA982D" transform="translate(0,0)"/>
<path d="" fill="#EC9A2C" transform="translate(0,0)"/>
<path d="" fill="#EB992C" transform="translate(0,0)"/>
<path d="" fill="#EB9A2F" transform="translate(0,0)"/>
<path d="" fill="#EE9B2E" transform="translate(0,0)"/>
<path d="" fill="#ED9D2D" transform="translate(0,0)"/>
<path d="" fill="#EC9A2E" transform="translate(0,0)"/>
<path d="" fill="#EC9E2B" transform="translate(0,0)"/>
<path d="" fill="#EC9B2E" transform="translate(0,0)"/>
<path d="" fill="#EC9A2D" transform="translate(0,0)"/>
<path d="" fill="#EE9C2F" transform="translate(0,0)"/>
<path d="" fill="#EC9C2D" transform="translate(0,0)"/>
<path d="" fill="#000000" transform="translate(0,0)"/>
</svg>
